<svg width="28" height="27" viewBox="0 0 28 27" fill="none" xmlns="http://www.w3.org/2000/svg">
<path fill-rule="evenodd" clip-rule="evenodd" d="M14.9468 0.702078C14.8501 0.492476 14.6953 0.314964 14.5009 0.190543C14.3065 0.0661221 14.0804 0 13.8496 0C13.6188 0 13.3928 0.0661221 13.1983 0.190543C13.0039 0.314964 12.8492 0.492476 12.7524 0.702078L9.28452 8.21791L1.06665 9.19304C0.837365 9.22011 0.620639 9.3123 0.442117 9.4587C0.263596 9.6051 0.130752 9.79958 0.0593091 10.0191C-0.0121341 10.2387 -0.0191863 10.4741 0.0389871 10.6975C0.0971605 10.9209 0.218124 11.123 0.387562 11.2798L6.46548 16.8986L4.85235 25.0186C4.80755 25.2449 4.82849 25.4794 4.91271 25.6942C4.99692 25.909 5.14088 26.0953 5.32758 26.2309C5.51427 26.3665 5.73589 26.4458 5.96623 26.4594C6.19657 26.4731 6.426 26.4205 6.6274 26.3079L13.8496 22.2648L21.0718 26.3079C21.2733 26.421 21.5031 26.4739 21.7338 26.4604C21.9644 26.4469 22.1864 26.3675 22.3734 26.2317C22.5603 26.0959 22.7044 25.9093 22.7886 25.694C22.8727 25.4788 22.8933 25.244 22.8481 25.0174L21.2349 16.8998L27.3116 11.2798C27.4811 11.123 27.6021 10.9209 27.6602 10.6975C27.7184 10.4741 27.7113 10.2387 27.6399 10.0191C27.5685 9.79958 27.4356 9.6051 27.2571 9.4587C27.0786 9.3123 26.8618 9.22011 26.6326 9.19304L18.4135 8.2167L14.9468 0.702078Z" fill="#FFC700"/>
</svg>
