<svg width="33" height="23" viewBox="0 0 33 23" fill="none" xmlns="http://www.w3.org/2000/svg">
<path fill-rule="evenodd" clip-rule="evenodd" d="M1.26667 0C0.930726 0 0.608544 0.133452 0.370998 0.370998C0.133452 0.608544 0 0.930726 0 1.26667C0 1.60261 0.133452 1.92479 0.370998 2.16233C0.608544 2.39988 0.930726 2.53333 1.26667 2.53333H31.6667C32.0026 2.53333 32.3248 2.39988 32.5623 2.16233C32.7999 1.92479 32.9333 1.60261 32.9333 1.26667C32.9333 0.930726 32.7999 0.608544 32.5623 0.370998C32.3248 0.133452 32.0026 0 31.6667 0H1.26667ZM0 11.4C0 11.0641 0.133452 10.7419 0.370998 10.5043C0.608544 10.2668 0.930726 10.1333 1.26667 10.1333H31.6667C32.0026 10.1333 32.3248 10.2668 32.5623 10.5043C32.7999 10.7419 32.9333 11.0641 32.9333 11.4C32.9333 11.7359 32.7999 12.0581 32.5623 12.2957C32.3248 12.5332 32.0026 12.6667 31.6667 12.6667H1.26667C0.930726 12.6667 0.608544 12.5332 0.370998 12.2957C0.133452 12.0581 0 11.7359 0 11.4ZM0 21.5333C0 21.1974 0.133452 20.8752 0.370998 20.6377C0.608544 20.4001 0.930726 20.2667 1.26667 20.2667H31.6667C32.0026 20.2667 32.3248 20.4001 32.5623 20.6377C32.7999 20.8752 32.9333 21.1974 32.9333 21.5333C32.9333 21.8693 32.7999 22.1915 32.5623 22.429C32.3248 22.6665 32.0026 22.8 31.6667 22.8H1.26667C0.930726 22.8 0.608544 22.6665 0.370998 22.429C0.133452 22.1915 0 21.8693 0 21.5333Z" fill="#F8F8F8"/>
</svg>
