<svg width="43" height="43" viewBox="0 0 43 43" fill="none" xmlns="http://www.w3.org/2000/svg">
<path d="M42.2434 40.034L30.4434 28.234C33.279 24.8298 34.693 20.4634 34.3913 16.0432C34.0896 11.623 32.0953 7.4893 28.8234 4.50199C25.5515 1.51469 21.2539 -0.096196 16.8246 0.00444715C12.3952 0.10509 8.17518 1.90951 5.04234 5.04234C1.90951 8.17518 0.10509 12.3952 0.00444715 16.8246C-0.096196 21.2539 1.51469 25.5515 4.50199 28.8234C7.4893 32.0953 11.623 34.0896 16.0432 34.3913C20.4634 34.693 24.8298 33.279 28.234 30.4434L40.034 42.2434L42.2434 40.034ZM3.18088 17.2434C3.18088 14.4621 4.00563 11.7432 5.55083 9.43067C7.09604 7.1181 9.2923 5.31568 11.8619 4.25132C14.4315 3.18696 17.259 2.90848 19.9868 3.45108C22.7147 3.99369 25.2204 5.33301 27.1871 7.29969C29.1537 9.26636 30.4931 11.7721 31.0357 14.4999C31.5783 17.2278 31.2998 20.0553 30.2354 22.6249C29.1711 25.1944 27.3686 27.3907 25.0561 28.9359C22.7435 30.4811 20.0247 31.3059 17.2434 31.3059C13.515 31.3017 9.94059 29.8188 7.30425 27.1825C4.66792 24.5462 3.18501 20.9717 3.18088 17.2434Z" fill="#F8F8F8"/>
</svg>
